<svg xmlns="http://www.w3.org/2000/svg" xmlns:xlink="http://www.w3.org/1999/xlink" viewBox="0 0 128.2 128"><defs><style>.cls-1{fill:none;}.cls-2{clip-path:url(#clip-path);}.cls-3{clip-path:url(#clip-path-2);}.cls-4,.cls-7{fill:#fff;}.cls-4{opacity:0.2;isolation:isolate;}.cls-5{clip-path:url(#clip-path-3);}.cls-6{clip-path:url(#clip-path-4);}</style><clipPath id="clip-path"><circle class="cls-1" cx="63.9" cy="64.38" r="37.61"/></clipPath><clipPath id="clip-path-2"><rect class="cls-1" x="-1.37" y="-706.66" width="414.84" height="898.26"/></clipPath><clipPath id="clip-path-3"><path class="cls-1" d="M64.08,52.09a4.7,4.7,0,0,1,4.71,4.7v9.44a4.66,4.66,0,0,1-.29,1.6l-8.08-14A4.73,4.73,0,0,1,64.08,52.09Zm-4.72,9.42,5.41,9.37a5.36,5.36,0,0,1-.7.05,4.72,4.72,0,0,1-4.71-4.7h0Zm11.78.67a1,1,0,0,1,1,1v3.36a1.11,1.11,0,0,1,0,.19,8,8,0,0,1-1.69,4.44l-1.12-1.94a6.06,6.06,0,0,0,.81-3v-3a1,1,0,0,1,1-1Zm-13-9.61L72.56,77.62a.54.54,0,0,1-.2.75h0l-.87.49a.54.54,0,0,1-.75-.19h0L56.28,53.62a.54.54,0,0,1,.19-.75h0l.86-.49a.54.54,0,0,1,.75.19ZM57,62.18a1,1,0,0,1,1,1v3a6,6,0,0,0,7.47,5.9l1,1.81a7.86,7.86,0,0,1-1.44.31V77h3.36a1,1,0,0,1,1,1,1,1,0,0,1-1,1.05H59.71a1,1,0,0,1-1-1,1,1,0,0,1,1-1h3.43V74.23a8.08,8.08,0,0,1-7-7.5,1,1,0,0,1,0-.18V63.19a1,1,0,0,1,1-1Z"/></clipPath><clipPath id="clip-path-4"><rect class="cls-1" x="-95.55" y="-705.68" width="414.84" height="898.26"/></clipPath></defs><g id="Capa_2" data-name="Capa 2"><g id="Capa_1-2" data-name="Capa 1"><rect class="cls-1" width="127.56" height="127.56"/><g id="Grupo_2712" data-name="Grupo 2712"><g class="cls-2"><g id="Grupo_2711" data-name="Grupo 2711"><g id="Grupo_2710" data-name="Grupo 2710"><g class="cls-3"><g id="Grupo_2709" data-name="Grupo 2709"><rect id="Rect치ngulo_263" data-name="Rect치ngulo 263" class="cls-4" x="20.76" y="21.24" width="86.29" height="86.29"/></g></g></g></g></g></g><g id="Grupo_2741" data-name="Grupo 2741"><g class="cls-5"><g id="Grupo_2740" data-name="Grupo 2740"><g id="Grupo_2739" data-name="Grupo 2739"><g class="cls-6"><g id="Grupo_2738" data-name="Grupo 2738"><rect id="Rect치ngulo_277" data-name="Rect치ngulo 277" class="cls-7" x="50.47" y="46.56" width="27.7" height="37.98"/></g></g></g></g></g></g><rect class="cls-1" x="0.64" y="0.44" width="127.56" height="127.56"/></g></g></svg>