<svg xmlns="http://www.w3.org/2000/svg" xmlns:xlink="http://www.w3.org/1999/xlink" viewBox="0 0 127.56 127.56"><defs><style>.cls-1{fill:none;}.cls-2{opacity:0.5;fill:url(#Degradado_sin_nombre_25);}</style><linearGradient id="Degradado_sin_nombre_25" x1="19.58" y1="64.26" x2="107.98" y2="64.26" gradientUnits="userSpaceOnUse"><stop offset="0" stop-color="#11aac1"/><stop offset="1" stop-color="#89b7b3"/></linearGradient></defs><g id="Capa_2" data-name="Capa 2"><g id="Capa_1-2" data-name="Capa 1"><rect class="cls-1" width="127.56" height="127.56"/><path class="cls-2" d="M107.86,85.56c-.27-1.09-2.72-9.52-2.72-9.52A25.44,25.44,0,0,0,64.59,46.37l-.82.82L63,46.37A25.44,25.44,0,0,0,22.4,76S20,84.47,19.68,85.56a3.13,3.13,0,0,0,2.25,3.81,3.17,3.17,0,0,0,1.56,0h0L33,86.65A25.33,25.33,0,0,0,63.48,81.2a25.63,25.63,0,0,0,30.46,5.45l9.53,2.72a3.05,3.05,0,0,0,3-.82h0A2.42,2.42,0,0,0,107.86,85.56ZM60.23,76a19.48,19.48,0,0,1-15,7.34,17.77,17.77,0,0,1-9.8-2.72A2.64,2.64,0,0,0,33,80.39L27.57,82l1.63-5.45a3.82,3.82,0,0,0-.27-2.45A19.33,19.33,0,0,1,31.65,51a19,19,0,0,1,23.13-3.27,23.29,23.29,0,0,1,5.45,4.63,25.19,25.19,0,0,0,0,23.69ZM70.3,69.23a4.63,4.63,0,1,1,4.63-4.63h0a4.76,4.76,0,0,1-4.62,4.63ZM83.36,69A4.63,4.63,0,1,1,88,64.33h0A4.76,4.76,0,0,1,83.37,69Zm12.8-.55a4.63,4.63,0,1,1,4.62-4.62h0a4.43,4.43,0,0,1-4.21,4.63h-.41Z"/></g></g></svg>