<svg xmlns="http://www.w3.org/2000/svg" xmlns:xlink="http://www.w3.org/1999/xlink" viewBox="0 0 127.56 127.56"><defs><style>.cls-1{fill:url(#Degradado_sin_nombre_10);}.cls-2{fill:none;}</style><linearGradient id="Degradado_sin_nombre_10" x1="-935.24" y1="628.4" x2="-935.24" y2="624.63" gradientTransform="matrix(18.99, 0, 0, -14.25, 17825.17, 8988.02)" gradientUnits="userSpaceOnUse"><stop offset="0" stop-color="#bfdada"/><stop offset="1" stop-color="#90d1dc"/></linearGradient></defs><g id="Capa_2" data-name="Capa 2"><g id="Capa_1-2" data-name="Capa 1"><path id="Icon_metro-profile" data-name="Icon metro-profile" class="cls-1" d="M94.67,44.1h-5V36.58L79.3,36.42l.06,7.68H48.27l.23-7.68-10.14.16v7.68l-5.13-.16a5.13,5.13,0,0,0-5.11,5.11V85.06a5.12,5.12,0,0,0,5.12,5.12H94.67a5.11,5.11,0,0,0,5.11-5.12V49.21A5.13,5.13,0,0,0,94.67,44.1ZM81.87,39H87V49.21H81.87ZM48.59,56.42a6.66,6.66,0,0,1,5.6,7.36,6.66,6.66,0,0,1-5.6,7.36A6.66,6.66,0,0,1,43,63.78,6.66,6.66,0,0,1,48.59,56.42ZM40.91,39H46V49.21H40.91Zm-3.4,40.83s.61-4.87,2-5.79a19.52,19.52,0,0,1,5.35-1.53s2.56,2.76,3.65,2.76,3.66-2.75,3.66-2.75A19.52,19.52,0,0,1,57.51,74c1.62,1.08,2,5.79,2,5.79h-22Zm52.05-2.43h-23V74.82h23Zm0-5.12h-23V69.7h23Zm0-5.12h-23V64.58h23Zm0-5.12h-23V59.46h23Z"/><rect class="cls-2" width="127.56" height="127.56"/></g></g></svg>