<svg xmlns="http://www.w3.org/2000/svg" xmlns:xlink="http://www.w3.org/1999/xlink" viewBox="0 0 127.56 127.56"><defs><style>.cls-1{fill:url(#Degradado_sin_nombre_10);}.cls-2{fill:url(#Degradado_sin_nombre_10-2);}.cls-3{fill:url(#Degradado_sin_nombre_10-3);}.cls-4{fill:url(#Degradado_sin_nombre_10-4);}.cls-5{fill:url(#Degradado_sin_nombre_10-5);}.cls-6{fill:none;}</style><linearGradient id="Degradado_sin_nombre_10" x1="-1201.58" y1="634.79" x2="-1201.58" y2="630.63" gradientTransform="matrix(15.75, 0, 0, -13.5, 18984.3, 8604.98)" gradientUnits="userSpaceOnUse"><stop offset="0" stop-color="#bfdada"/><stop offset="1" stop-color="#90d1dc"/></linearGradient><linearGradient id="Degradado_sin_nombre_10-2" x1="-1050.38" y1="612.7" x2="-1050.38" y2="608.54" gradientTransform="matrix(5.63, 0, 0, -1.97, 5978.32, 1252.23)" xlink:href="#Degradado_sin_nombre_10"/><linearGradient id="Degradado_sin_nombre_10-3" x1="-1050.38" y1="585.12" x2="-1050.38" y2="580.97" gradientTransform="matrix(5.63, 0, 0, -1.13, 5978.32, 716.96)" xlink:href="#Degradado_sin_nombre_10"/><linearGradient id="Degradado_sin_nombre_10-4" x1="-1050.38" y1="578.81" x2="-1050.38" y2="574.65" gradientTransform="matrix(5.63, 0, 0, -1.13, 5978.32, 719.21)" xlink:href="#Degradado_sin_nombre_10"/><linearGradient id="Degradado_sin_nombre_10-5" x1="-1061.61" y1="572.49" x2="-1061.61" y2="568.33" gradientTransform="matrix(5.91, 0, 0, -1.13, 6339.2, 721.46)" xlink:href="#Degradado_sin_nombre_10"/></defs><g id="Capa_2" data-name="Capa 2"><g id="Capa_1-2" data-name="Capa 1"><g id="Icon_ionic-md-paper" data-name="Icon ionic-md-paper"><path id="Trazado_3825" data-name="Trazado 3825" class="cls-1" d="M89.8,35.31H50a2.4,2.4,0,0,0-2.34,2.41v4.61H32.78a6.15,6.15,0,0,0-6.15,6.13V78.83A12.67,12.67,0,0,0,39.21,91.45H80.1a12.05,12.05,0,0,0,12-12V37.65A2.34,2.34,0,0,0,89.8,35.31ZM47.69,47V75.08H41.55V49.81A7.3,7.3,0,0,0,41.07,47ZM45.2,84.35a8.67,8.67,0,0,1-5.93,2.43,8,8,0,0,1-8-8v-29a2.78,2.78,0,0,1,5.56,0V77.42a2.34,2.34,0,0,0,2.34,2.34h8.44a7.71,7.71,0,0,1-2.44,4.59Zm42.25-4.88a7.39,7.39,0,0,1-7.35,7.31H49.34a12.26,12.26,0,0,0,3-8V40.13H87.46Z"/><path id="Trazado_3826" data-name="Trazado 3826" class="cls-2" d="M58.22,45.84H81.61V54H58.22Z"/><path id="Trazado_3827" data-name="Trazado 3827" class="cls-3" d="M58.22,58.7H81.61v4.68H58.22Z"/><path id="Trazado_3828" data-name="Trazado 3828" class="cls-4" d="M58.22,68.06H81.61v4.68H58.22Z"/><path id="Trazado_3829" data-name="Trazado 3829" class="cls-5" d="M81.61,77.42H58.22s0,4.67-1.17,4.67H78.78C81.61,82.09,81.61,79,81.61,77.42Z"/></g><rect class="cls-6" width="127.56" height="127.56"/></g></g></svg>