<svg xmlns="http://www.w3.org/2000/svg" xmlns:xlink="http://www.w3.org/1999/xlink" viewBox="0 0 127.56 127.56"><defs><style>.cls-1{isolation:isolate;}.cls-2{fill:none;}.cls-3,.cls-5{opacity:0.5;}.cls-4{fill:url(#Degradado_sin_nombre_25);}.cls-5{mix-blend-mode:luminosity;}.cls-6{fill:url(#Degradado_sin_nombre_25-2);}.cls-7{fill:url(#Degradado_sin_nombre_25-3);}</style><linearGradient id="Degradado_sin_nombre_25" x1="24.13" y1="63.92" x2="103.43" y2="63.92" gradientUnits="userSpaceOnUse"><stop offset="0" stop-color="#11aac1"/><stop offset="1" stop-color="#89b7b3"/></linearGradient><linearGradient id="Degradado_sin_nombre_25-2" x1="-997.72" y1="788.91" x2="-994.66" y2="788.91" gradientTransform="matrix(8.45, 0, 0, -13.79, 8475.87, 10946.31)" xlink:href="#Degradado_sin_nombre_25"/><linearGradient id="Degradado_sin_nombre_25-3" x1="-902.11" y1="782.58" x2="-899.05" y2="782.58" gradientTransform="matrix(5.06, 0, 0, -5.74, 4630.45, 4565.79)" xlink:href="#Degradado_sin_nombre_25"/></defs><g class="cls-1"><g id="Capa_2" data-name="Capa 2"><g id="Capa_1-2" data-name="Capa 1"><rect class="cls-2" width="127.56" height="127.56"/><g class="cls-3"><path class="cls-4" d="M63.78,103.56a39.65,39.65,0,1,1,39.65-39.64A39.69,39.69,0,0,1,63.78,103.56Zm0-76.29a36.65,36.65,0,1,0,36.65,36.65A36.69,36.69,0,0,0,63.78,27.27Z"/></g><g id="Grupo_2636" data-name="Grupo 2636" class="cls-5"><path id="Trazado_797" data-name="Trazado 797" class="cls-6" d="M64.29,84.45H50.67a1.34,1.34,0,0,1-1.34-1.34h0c0-17.33,13.31-19,13.45-19h.14A9.55,9.55,0,1,0,58,62.74a1.34,1.34,0,0,1,.55,1.81,1.32,1.32,0,0,1-1.8.55L56.67,65A12.24,12.24,0,1,1,63,66.75c-.94.13-10.39,1.79-11,15H64.28a1.34,1.34,0,1,1,0,2.67Z"/><g id="Grupo_2635" data-name="Grupo 2635"><path id="Trazado_798" data-name="Trazado 798" class="cls-7" d="M75.18,65.58V73h6.46v2.65H75.18v7.42H72.6V75.69H66.18V73H72.6V65.58Z"/></g></g></g></g></g></svg>