<svg xmlns="http://www.w3.org/2000/svg" xmlns:xlink="http://www.w3.org/1999/xlink" viewBox="0 0 127.56 127.56"><defs><style>.cls-1{isolation:isolate;}.cls-2{fill:none;}.cls-3,.cls-5{opacity:0.5;}.cls-4{fill:url(#Degradado_sin_nombre_25);}.cls-5{mix-blend-mode:luminosity;}.cls-6{fill:url(#Degradado_sin_nombre_25-2);}.cls-7{fill:url(#Degradado_sin_nombre_25-3);}.cls-8{fill:url(#Degradado_sin_nombre_25-4);}</style><linearGradient id="Degradado_sin_nombre_25" x1="24.13" y1="62.89" x2="103.43" y2="62.89" gradientUnits="userSpaceOnUse"><stop offset="0" stop-color="#11aac1"/><stop offset="1" stop-color="#89b7b3"/></linearGradient><linearGradient id="Degradado_sin_nombre_25-2" x1="-1021.22" y1="780.09" x2="-1018.16" y2="780.09" gradientTransform="matrix(3.46, 0, 0, -3.46, 3603.82, 2752.79)" xlink:href="#Degradado_sin_nombre_25"/><linearGradient id="Degradado_sin_nombre_25-3" x1="-1188.42" y1="785.57" x2="-1185.37" y2="785.57" gradientTransform="matrix(5.84, 0, 0, -5.85, 7004.98, 4643.85)" xlink:href="#Degradado_sin_nombre_25"/><linearGradient id="Degradado_sin_nombre_25-4" x1="-1323.92" y1="788.73" x2="-1320.86" y2="788.73" gradientTransform="matrix(12.99, 0, 0, -13.02, 17237, 10333.28)" xlink:href="#Degradado_sin_nombre_25"/></defs><g class="cls-1"><g id="Capa_2" data-name="Capa 2"><g id="Capa_1-2" data-name="Capa 1"><rect class="cls-2" width="127.56" height="127.56"/><g class="cls-3"><path class="cls-4" d="M63.78,102.54a39.65,39.65,0,1,1,39.65-39.65A39.7,39.7,0,0,1,63.78,102.54Zm0-76.3a36.65,36.65,0,1,0,36.65,36.65A36.69,36.69,0,0,0,63.78,26.24Z"/></g><g id="_057-phone-call" data-name=" 057-phone-call" class="cls-5"><path id="Path" class="cls-6" d="M77,57.4a10.83,10.83,0,0,0-8.55-8.55,1.68,1.68,0,0,0-.7,3.29h.06A7.42,7.42,0,0,1,73.72,58a1.68,1.68,0,0,0,3.3-.65Z"/><path id="Path-2" class="cls-7" d="M84.36,57.53a18.11,18.11,0,0,0-16-16A1.68,1.68,0,0,0,68,44.87a14.69,14.69,0,0,1,13,13,1.68,1.68,0,0,0,1.67,1.49h.18a1.68,1.68,0,0,0,1.49-1.85h0Z"/><path id="Shape" class="cls-8" d="M77.23,83.12h0a2.63,2.63,0,0,1-.48,0h0a38,38,0,0,1-16.5-5.86,38.38,38.38,0,0,1-17.33-28v0a5.34,5.34,0,0,1,4.83-5.8h0l.48,0h5.5A5.36,5.36,0,0,1,59,47.92h0a21.76,21.76,0,0,0,1.18,4.77A5.33,5.33,0,0,1,59,58.32h0l-1.39,1.4a27.66,27.66,0,0,0,8.58,8.58l1.4-1.39h0a5.38,5.38,0,0,1,3.76-1.54,5.24,5.24,0,0,1,1.87.34,22.13,22.13,0,0,0,4.76,1.19h0a5.34,5.34,0,0,1,4.59,5.39v5.46A5.35,5.35,0,0,1,77.23,83.12Zm-29-36.42H48a2,2,0,0,0-1.79,2.14,34.58,34.58,0,0,0,5.35,15.09h0A34.21,34.21,0,0,0,62,74.37h0a34.55,34.55,0,0,0,15,5.35h.17a2,2,0,0,0,2-2V72.21a2,2,0,0,0-1.69-2A25.31,25.31,0,0,1,72,68.84a2,2,0,0,0-2.09.44L67.58,71.6a1.7,1.7,0,0,1-2,.27A31,31,0,0,1,54,60.28a1.68,1.68,0,0,1,.28-2l2.31-2.32A2,2,0,0,0,57,53.86a25.45,25.45,0,0,1-1.37-5.5,2,2,0,0,0-2-1.69H48.19Z"/></g></g></g></g></svg>