<svg xmlns="http://www.w3.org/2000/svg" xmlns:xlink="http://www.w3.org/1999/xlink" viewBox="0 0 127.56 127.56"><defs><style>.cls-1{fill:url(#Degradado_sin_nombre_10);}.cls-2{fill:none;}</style><linearGradient id="Degradado_sin_nombre_10" x1="-1062.72" y1="633.87" x2="-1062.72" y2="630.41" gradientTransform="matrix(15.75, 0, 0, -19.19, 16795.88, 12194.68)" gradientUnits="userSpaceOnUse"><stop offset="0" stop-color="#bfdada"/><stop offset="1" stop-color="#90d1dc"/></linearGradient></defs><g id="Capa_2" data-name="Capa 2"><g id="Capa_1-2" data-name="Capa 1"><path id="Icon_material-notifications-none" data-name="Icon material-notifications-none" class="cls-1" d="M62.24,96.72a6.83,6.83,0,0,0,6.81-6.81H55.41A6.83,6.83,0,0,0,62.24,96.72ZM82.65,76.3v-17c0-10.45-5.53-19.2-15.32-21.52V35.43a5.11,5.11,0,0,0-10.21,0h0v2.33c-9.74,2.31-15.33,11-15.33,21.52v17L35,83.09v3.4H89.48v-3.4Zm-6.81,3.41H48.61V59.29C48.61,50.85,53.76,44,62.23,44s13.62,6.88,13.62,15.32Z"/><rect class="cls-2" width="127.56" height="127.56"/></g></g></svg>