<svg xmlns="http://www.w3.org/2000/svg" xmlns:xlink="http://www.w3.org/1999/xlink" viewBox="0 0 127.78 128.06"><defs><style>.cls-1{fill:none;}.cls-2{clip-path:url(#clip-path);}.cls-3{clip-path:url(#clip-path-2);}.cls-4,.cls-6{fill:#fff;}.cls-4{opacity:0.2;isolation:isolate;}.cls-5{clip-path:url(#clip-path-3);}</style><clipPath id="clip-path"><circle class="cls-1" cx="64.01" cy="64.3" r="34.23"/></clipPath><clipPath id="clip-path-2"><rect class="cls-1" x="4.61" y="-637.4" width="377.53" height="817.48"/></clipPath><clipPath id="clip-path-3"><path class="cls-1" d="M72.13,74.12l1.05,1a1.22,1.22,0,0,0,1.69.39,1.24,1.24,0,0,0,.38-1.7,1.37,1.37,0,0,0-.38-.38l-1.05-1a1.21,1.21,0,0,0-1.69-.38,1.23,1.23,0,0,0-.38,1.69,1.37,1.37,0,0,0,.38.38Zm-17.59-21a1.23,1.23,0,1,0-2.08,1.31,1.37,1.37,0,0,0,.38.38l1,1.05A1.23,1.23,0,0,0,56,54.57a1.21,1.21,0,0,0-.39-.39l-1-1Zm-.65,19.29-1,1a1.23,1.23,0,0,0,1.31,2.08,1.09,1.09,0,0,0,.38-.39l1-1A1.23,1.23,0,0,0,54.27,72a1.29,1.29,0,0,0-.38.39Zm21-17.6a1.23,1.23,0,0,0-1.31-2.08,1.37,1.37,0,0,0-.38.38l-1.05,1a1.22,1.22,0,0,0,1.31,2.07,1,1,0,0,0,.38-.38Zm-11,19.78a1.38,1.38,0,0,0-1.2,1.5v1.5a1.23,1.23,0,1,0,2.4,0v-1.5a1.38,1.38,0,0,0-1.19-1.49Zm0-20.93a1.36,1.36,0,0,0,1.2-1.49v-1.5a1.23,1.23,0,1,0-2.39,0v1.5a1.37,1.37,0,0,0,1.2,1.49ZM53.35,64.15A1.33,1.33,0,0,0,51.89,63h-1.5a1.23,1.23,0,1,0,0,2.39h1.5a1.34,1.34,0,0,0,1.47-1.19Zm10.65,6a6,6,0,1,1-.31-12,1.61,1.61,0,0,1,.31,0Zm-.15-14.21a8.23,8.23,0,1,0,8.22,8.23h0a8.2,8.2,0,0,0-8.18-8.22h0Zm13.46,7H75.85a1.23,1.23,0,1,0,0,2.39h1.46a1.23,1.23,0,1,0,0-2.39Z"/></clipPath></defs><g id="Capa_2" data-name="Capa 2"><g id="Capa_1-2" data-name="Capa 1"><rect class="cls-1" y="0.5" width="127.56" height="127.56"/><g id="Grupo_2712" data-name="Grupo 2712"><g class="cls-2"><g id="Grupo_2711" data-name="Grupo 2711"><g id="Grupo_2710" data-name="Grupo 2710"><g class="cls-3"><g id="Grupo_2709" data-name="Grupo 2709"><rect id="Rect치ngulo_263" data-name="Rect치ngulo 263" class="cls-4" x="24.74" y="25.04" width="78.53" height="78.53"/></g></g></g></g></g></g><g id="Grupo_2745" data-name="Grupo 2745"><g class="cls-5"><g id="Grupo_2744" data-name="Grupo 2744"><g id="Grupo_2743" data-name="Grupo 2743"><g class="cls-3"><g id="Grupo_2742" data-name="Grupo 2742"><rect id="Rect치ngulo_279" data-name="Rect치ngulo 279" class="cls-6" x="43.87" y="44.17" width="39.97" height="39.97"/></g></g></g></g></g></g><rect class="cls-1" x="0.23" width="127.56" height="127.56"/></g></g></svg>