<svg xmlns="http://www.w3.org/2000/svg" xmlns:xlink="http://www.w3.org/1999/xlink" viewBox="0 0 127.56 127.56"><defs><style>.cls-1{fill:url(#Degradado_sin_nombre_10);}.cls-2{fill:url(#Degradado_sin_nombre_10-2);}.cls-3{fill:none;}</style><linearGradient id="Degradado_sin_nombre_10" x1="-1339.07" y1="637.45" x2="-1339.07" y2="633.5" gradientTransform="matrix(15.75, 0, 0, -15.75, 21153.44, 10070.71)" gradientUnits="userSpaceOnUse"><stop offset="0" stop-color="#bfdada"/><stop offset="1" stop-color="#90d1dc"/></linearGradient><linearGradient id="Degradado_sin_nombre_10-2" x1="-1130.55" y1="635.25" x2="-1130.55" y2="631.3" gradientTransform="matrix(4.85, 0, 0, -7.29, 5546.26, 4677.7)" xlink:href="#Degradado_sin_nombre_10"/></defs><g id="Capa_2" data-name="Capa 2"><g id="Capa_1-2" data-name="Capa 1"><g id="Icon_ionic-ios-help-circle-outline" data-name="Icon ionic-ios-help-circle-outline"><path id="Trazado_3830" data-name="Trazado 3830" class="cls-1" d="M63.1,35.06a26.92,26.92,0,1,1-19,7.9,26.91,26.91,0,0,1,19-7.9m0-4.19A31.12,31.12,0,1,0,94.21,62,31.12,31.12,0,0,0,63.1,30.87Z"/><path id="Trazado_3831" data-name="Trazado 3831" class="cls-2" d="M63.21,47.63c5.61,0,9.48,3.11,9.48,7.58a7.31,7.31,0,0,1-4.21,6.64C65.88,63.36,65,64.47,65,66.39v1.18H59.79l0-1.29a6.22,6.22,0,0,1,3.53-6.58c2.53-1.51,3.59-2.47,3.59-4.32a3.62,3.62,0,0,0-4-3.22h0a3.78,3.78,0,0,0-4,3.55.62.62,0,0,0,0,.13H53.53a8.54,8.54,0,0,1,8.78-8.29C62.61,47.56,62.91,47.59,63.21,47.63Zm-4,25.63a3.21,3.21,0,1,1,3.34,3.08h-.14a3.14,3.14,0,0,1-3.19-3.08h0Z"/></g><rect class="cls-3" width="127.56" height="127.56"/></g></g></svg>