<svg xmlns="http://www.w3.org/2000/svg" xmlns:xlink="http://www.w3.org/1999/xlink" viewBox="0 0 127.56 127.56"><defs><style>.cls-1{isolation:isolate;}.cls-2{fill:none;}.cls-3,.cls-5,.cls-6{opacity:0.5;}.cls-4{fill:url(#Degradado_sin_nombre_25);}.cls-5,.cls-6{mix-blend-mode:luminosity;}.cls-5{fill:url(#Degradado_sin_nombre_25-2);}.cls-6{fill:url(#Degradado_sin_nombre_25-3);}</style><linearGradient id="Degradado_sin_nombre_25" x1="24.13" y1="63.41" x2="103.43" y2="63.41" gradientUnits="userSpaceOnUse"><stop offset="0" stop-color="#11aac1"/><stop offset="1" stop-color="#89b7b3"/></linearGradient><linearGradient id="Degradado_sin_nombre_25-2" x1="-628.49" y1="614.46" x2="-625.44" y2="614.46" gradientTransform="matrix(9.73, 0, 0, -8.72, 6161.22, 5422.88)" xlink:href="#Degradado_sin_nombre_25"/><linearGradient id="Degradado_sin_nombre_25-3" x1="-447.17" y1="603.07" x2="-444.12" y2="603.07" gradientTransform="matrix(2.68, 0, 0, -5.87, 1278.86, 3606.06)" xlink:href="#Degradado_sin_nombre_25"/></defs><g class="cls-1"><g id="Capa_2" data-name="Capa 2"><g id="Capa_1-2" data-name="Capa 1"><rect class="cls-2" width="127.56" height="127.56"/><g class="cls-3"><path class="cls-4" d="M63.78,103.06a39.65,39.65,0,1,1,39.65-39.65A39.7,39.7,0,0,1,63.78,103.06Zm0-76.3a36.65,36.65,0,1,0,36.65,36.65A36.69,36.69,0,0,0,63.78,26.76Z"/></g><path id="Rectángulo_221" data-name="Rectángulo 221" class="cls-5" d="M60,50.2H63A13.33,13.33,0,0,1,76.36,63.52h0A13.33,13.33,0,0,1,63,76.85H60A13.33,13.33,0,0,1,46.63,63.52h0A13.33,13.33,0,0,1,60,50.2Z"/><path id="Trazado_800" data-name="Trazado 800" class="cls-6" d="M81.11,72h0a7.92,7.92,0,0,1-2.71-6V61.94a8.54,8.54,0,0,1,2.5-6h0a3.34,3.34,0,0,1,5.7,2.35V69.56A3.31,3.31,0,0,1,81.11,72Z"/></g></g></g></svg>