<svg xmlns="http://www.w3.org/2000/svg" xmlns:xlink="http://www.w3.org/1999/xlink" viewBox="0 0 127.56 127.56"><defs><style>.cls-1{isolation:isolate;}.cls-2{fill:none;}.cls-3,.cls-5{opacity:0.5;}.cls-4{fill:url(#Degradado_sin_nombre_25);}.cls-5{mix-blend-mode:luminosity;fill:url(#Degradado_sin_nombre_25-2);}</style><linearGradient id="Degradado_sin_nombre_25" x1="24.13" y1="64.71" x2="103.43" y2="64.71" gradientUnits="userSpaceOnUse"><stop offset="0" stop-color="#11aac1"/><stop offset="1" stop-color="#89b7b3"/></linearGradient><linearGradient id="Degradado_sin_nombre_25-2" x1="-1192.33" y1="788.85" x2="-1189.28" y2="788.85" gradientTransform="matrix(13.97, 0, 0, -13.97, 16700.05, 11085.26)" xlink:href="#Degradado_sin_nombre_25"/></defs><g class="cls-1"><g id="Capa_2" data-name="Capa 2"><g id="Capa_1-2" data-name="Capa 1"><rect class="cls-2" width="127.56" height="127.56"/><g class="cls-3"><path class="cls-4" d="M63.78,104.36a39.65,39.65,0,1,1,39.65-39.65A39.7,39.7,0,0,1,63.78,104.36Zm0-76.3a36.65,36.65,0,1,0,36.65,36.65A36.69,36.69,0,0,0,63.78,28.06Z"/></g><path id="Trazado_799" data-name="Trazado 799" class="cls-5" d="M64.28,43.55A21.34,21.34,0,1,0,85.62,64.89h0A21.37,21.37,0,0,0,64.28,43.55Zm0,2.74a18.57,18.57,0,0,1,13.57,5.89L49.57,76.27a18.59,18.59,0,0,1,14.71-30Zm0,37.21A18.53,18.53,0,0,1,51.4,78.3l28.16-24A18.58,18.58,0,0,1,64.29,83.5Z"/></g></g></g></svg>