<svg xmlns="http://www.w3.org/2000/svg" viewBox="0 0 127.56 128"><defs><style>.cls-1{fill:none;}.cls-2{fill:#e62e2e;}.cls-3{fill:#fff;}</style></defs><g id="Capa_2" data-name="Capa 2"><g id="Capa_1-2" data-name="Capa 1"><rect class="cls-1" width="127.56" height="127.56"/><circle id="Oval-8" class="cls-2" cx="63.78" cy="63.28" r="36.98"/><path id="Shape" class="cls-3" d="M43.73,60.23h0L44,60v0A31.16,31.16,0,0,1,57,53.79a30.84,30.84,0,0,1,13.25,0,31.16,31.16,0,0,1,13,6.19h0a4.36,4.36,0,0,1,.56,6.14l-.26.29L80.3,69.6a4.37,4.37,0,0,1-5.7.4h0a17.61,17.61,0,0,0-3.44-2.06A4.38,4.38,0,0,1,68.6,64V62.37a22.44,22.44,0,0,0-9.92,0V64h0A4.38,4.38,0,0,1,57.4,67a4.18,4.18,0,0,1-1.28.88A17.58,17.58,0,0,0,52.69,70h0a4.35,4.35,0,0,1-5.76-.46l-3.16-3.16A4.35,4.35,0,0,1,43.73,60.23Zm37.81,4.25.1-.11a1.63,1.63,0,0,0-.2-2.27,28.24,28.24,0,0,0-11.8-5.62h0a27.88,27.88,0,0,0-12.06,0h0a28.35,28.35,0,0,0-11.77,5.58l-.11.09a1.62,1.62,0,0,0,0,2.28l3.2,3.2a1.61,1.61,0,0,0,2.13.18,21.28,21.28,0,0,1,4-2.39,1.59,1.59,0,0,0,1-1.45V61.29a1.38,1.38,0,0,1,1-1.32,25.35,25.35,0,0,1,13.39,0,1.38,1.38,0,0,1,1,1.32V64a1.62,1.62,0,0,0,1,1.46,20.4,20.4,0,0,1,4,2.38,1.64,1.64,0,0,0,2.11-.15l3.18-3.19Z"/><rect class="cls-1" y="0.44" width="127.56" height="127.56"/></g></g></svg>