<svg xmlns="http://www.w3.org/2000/svg" xmlns:xlink="http://www.w3.org/1999/xlink" viewBox="0 0 127.56 128.06"><defs><style>.cls-1{fill:none;}.cls-2{clip-path:url(#clip-path);}.cls-3{clip-path:url(#clip-path-2);}.cls-4{fill:#e8403d;}.cls-5{clip-path:url(#clip-path-3);}.cls-6{clip-path:url(#clip-path-4);}.cls-7{clip-path:url(#clip-path-5);}.cls-8{clip-path:url(#clip-path-6);}.cls-9{fill:#fff;}</style><clipPath id="clip-path"><circle class="cls-1" cx="64.74" cy="62.68" r="37.61"/></clipPath><clipPath id="clip-path-2"><rect class="cls-1" x="-284.82" y="-708.36" width="414.84" height="898.26"/></clipPath><clipPath id="clip-path-3"><path class="cls-1" d="M66.83,62.69,75,54.53a1.47,1.47,0,0,0,0-2.09,1.49,1.49,0,0,0-2.09,0L64.74,60.6l-8.16-8.16a1.47,1.47,0,0,0-2.08,2.09l8.16,8.16L54.5,70.84a1.47,1.47,0,0,0,2.08,2.09l8.16-8.16,8.15,8.16a1.49,1.49,0,0,0,2.09,0,1.47,1.47,0,0,0,0-2.09h0Z"/></clipPath><clipPath id="clip-path-4"><rect class="cls-1" x="-284.82" y="-708.36" width="414.84" height="898.26"/></clipPath><clipPath id="clip-path-5"><rect class="cls-1" x="48.15" y="46.09" width="33.19" height="33.19"/></clipPath><clipPath id="clip-path-6"><rect class="cls-1" x="53.68" y="51.62" width="22.12" height="22.12"/></clipPath></defs><g id="Capa_2" data-name="Capa 2"><g id="Capa_1-2" data-name="Capa 1"><rect class="cls-1" y="0.5" width="127.56" height="127.56"/><g class="cls-2"><g id="Grupo_2727" data-name="Grupo 2727"><g id="Grupo_2726" data-name="Grupo 2726"><g class="cls-3"><g id="Grupo_2725" data-name="Grupo 2725"><rect id="Rect치ngulo_271" data-name="Rect치ngulo 271" class="cls-4" x="21.6" y="19.54" width="86.29" height="86.29"/></g></g></g></g></g><g id="Grupo_2737" data-name="Grupo 2737"><g class="cls-5"><g id="Grupo_2736" data-name="Grupo 2736"><g id="Grupo_2735" data-name="Grupo 2735"><g class="cls-6"><g id="Grupo_2734" data-name="Grupo 2734"><g id="Grupo_2733" data-name="Grupo 2733"><g id="Grupo_2732" data-name="Grupo 2732"><g class="cls-7"><g id="Grupo_2731" data-name="Grupo 2731"><g id="Grupo_2730" data-name="Grupo 2730"><g class="cls-8"><g id="Grupo_2729" data-name="Grupo 2729"><rect id="Rect치ngulo_273" data-name="Rect치ngulo 273" class="cls-9" x="48.55" y="46.49" width="32.4" height="32.4"/></g></g></g></g></g></g></g></g></g></g></g></g></g><rect class="cls-1" width="127.56" height="127.56"/></g></g></svg>