<svg xmlns="http://www.w3.org/2000/svg" xmlns:xlink="http://www.w3.org/1999/xlink" viewBox="0 0 127.73 128"><defs><style>.cls-1{fill:none;}.cls-2{clip-path:url(#clip-path);}.cls-3{clip-path:url(#clip-path-2);}.cls-4,.cls-7{fill:#fff;}.cls-4{opacity:0.2;isolation:isolate;}.cls-5{clip-path:url(#clip-path-3);}.cls-6{clip-path:url(#clip-path-4);}</style><clipPath id="clip-path"><circle class="cls-1" cx="64.07" cy="64.22" r="37.61"/></clipPath><clipPath id="clip-path-2"><rect class="cls-1" x="-190.36" y="-706.82" width="414.84" height="898.26"/></clipPath><clipPath id="clip-path-3"><path class="cls-1" d="M74.13,66.1,70.7,69.59,67.27,66.1a1.11,1.11,0,0,1,1.33-1.77,1.14,1.14,0,0,1,.22.22l.66.66a5.56,5.56,0,0,0-1.54-3.81,5.43,5.43,0,0,0-6.48-.94,1.11,1.11,0,0,1-1.23-1.84l.18-.1a7.67,7.67,0,0,1,9.07,1.33,7.76,7.76,0,0,1,2.21,5.53l.84-.83a1.09,1.09,0,0,1,1.54-.22,1.1,1.1,0,0,1,.22,1.55,1.15,1.15,0,0,1-.22.22Zm-10.06,7a7.67,7.67,0,0,1-5.48-2.27,7.82,7.82,0,0,1-2.21-5.53l-.83.83a1.11,1.11,0,0,1-1.77-1.33,1.15,1.15,0,0,1,.22-.22l3.43-3.48,3.43,3.48a1.11,1.11,0,0,1-1.34,1.77,1.45,1.45,0,0,1-.21-.22l-.66-.66a5.57,5.57,0,0,0,1.55,3.82,5.42,5.42,0,0,0,6.47.94,1.1,1.1,0,0,1,1,1.93,7.52,7.52,0,0,1-3.65.94ZM79,56.48H72.14l-3.65-4.43H59.64L56,56.48H49.13a1.66,1.66,0,0,0-1.66,1.66h0V74.73a1.66,1.66,0,0,0,1.66,1.66H79a1.66,1.66,0,0,0,1.66-1.66V58.14A1.66,1.66,0,0,0,79,56.48Z"/></clipPath><clipPath id="clip-path-4"><rect class="cls-1" x="-190.37" y="-706.82" width="414.84" height="898.26"/></clipPath></defs><g id="Capa_2" data-name="Capa 2"><g id="Capa_1-2" data-name="Capa 1"><rect class="cls-1" x="0.17" width="127.56" height="127.56"/><g id="Grupo_2720" data-name="Grupo 2720"><g class="cls-2"><g id="Grupo_2719" data-name="Grupo 2719"><g id="Grupo_2718" data-name="Grupo 2718"><g class="cls-3"><g id="Grupo_2717" data-name="Grupo 2717"><rect id="Rect치ngulo_267" data-name="Rect치ngulo 267" class="cls-4" x="20.92" y="21.08" width="86.29" height="86.29"/></g></g></g></g></g></g><g id="Grupo_2724" data-name="Grupo 2724"><g class="cls-5"><g id="Grupo_2723" data-name="Grupo 2723"><g id="Grupo_2722" data-name="Grupo 2722"><g class="cls-6"><g id="Grupo_2721" data-name="Grupo 2721"><rect id="Rect치ngulo_269" data-name="Rect치ngulo 269" class="cls-7" x="41.94" y="46.52" width="44.25" height="35.4"/></g></g></g></g></g></g><rect class="cls-1" y="0.44" width="127.56" height="127.56"/></g></g></svg>