<svg xmlns="http://www.w3.org/2000/svg" xmlns:xlink="http://www.w3.org/1999/xlink" viewBox="0 0 127.56 127.56"><defs><style>.cls-1{fill:url(#Degradado_sin_nombre_10);}.cls-2{fill:none;}</style><linearGradient id="Degradado_sin_nombre_10" x1="-791.61" y1="628.23" x2="-791.61" y2="624.51" gradientTransform="matrix(17.44, 0, 0, -17.44, 13867.26, 10986.39)" gradientUnits="userSpaceOnUse"><stop offset="0" stop-color="#bfdada"/><stop offset="1" stop-color="#90d1dc"/></linearGradient></defs><g id="Capa_2" data-name="Capa 2"><g id="Capa_1-2" data-name="Capa 1"><path id="Icon_awesome-user-circle" data-name="Icon awesome-user-circle" class="cls-1" d="M63.13,31.24A32.45,32.45,0,1,0,95.58,63.69h0A32.44,32.44,0,0,0,63.15,31.24Zm0,12.56A11.52,11.52,0,1,1,51.62,55.31h0A11.51,11.51,0,0,1,63.13,43.79Zm0,45A25.1,25.1,0,0,1,44,79.87a14.6,14.6,0,0,1,12.89-7.81,3.22,3.22,0,0,1,.93.14,16.21,16.21,0,0,0,10.71,0,3.22,3.22,0,0,1,.93-.14A14.58,14.58,0,0,1,82.3,79.87,25,25,0,0,1,63.13,88.8Z"/><rect class="cls-2" width="127.56" height="127.56"/></g></g></svg>