<svg xmlns="http://www.w3.org/2000/svg" xmlns:xlink="http://www.w3.org/1999/xlink" viewBox="0 0 127.56 127.56"><defs><style>.cls-1{fill:none;}.cls-2{opacity:0.5;}.cls-3{fill:url(#Degradado_sin_nombre_25);}.cls-4{fill:url(#Degradado_sin_nombre_25-2);}.cls-5{fill:url(#Degradado_sin_nombre_25-3);}</style><linearGradient id="Degradado_sin_nombre_25" x1="-807.85" y1="789.91" x2="-805.22" y2="789.91" gradientTransform="matrix(23, 0, 0, -14.38, 18612.4, 11425.08)" gradientUnits="userSpaceOnUse"><stop offset="0" stop-color="#11aac1"/><stop offset="1" stop-color="#89b7b3"/></linearGradient><linearGradient id="Degradado_sin_nombre_25-2" x1="-807.85" y1="789.32" x2="-805.22" y2="789.32" gradientTransform="matrix(23, 0, 0, -14.39, 18613.43, 11434.25)" xlink:href="#Degradado_sin_nombre_25"/><linearGradient id="Degradado_sin_nombre_25-3" x1="-807.66" y1="790.51" x2="-805.03" y2="790.51" gradientTransform="matrix(22.87, 0, 0, -14.39, 18508.33, 11424.24)" xlink:href="#Degradado_sin_nombre_25"/></defs><g id="Capa_2" data-name="Capa 2"><g id="Capa_1-2" data-name="Capa 1"><rect class="cls-1" width="127.56" height="127.56"/><g id="Grupo_3667" data-name="Grupo 3667" class="cls-2"><g id="Grupo_3664" data-name="Grupo 3664"><path id="Trazado_2070" data-name="Trazado 2070" class="cls-3" d="M64.19,83.28a18.92,18.92,0,0,1-8.54-2L39.24,73a9.74,9.74,0,0,1,.08-17.43l16.41-8.11a19,19,0,0,1,16.83,0L89,55.65a9.79,9.79,0,0,1,0,17.5L72.65,81.3A18.81,18.81,0,0,1,64.19,83.28Zm-.08-33.14A14.28,14.28,0,0,0,57.8,51.6L41.39,59.72a5.08,5.08,0,0,0,0,9.07l16.41,8.29a14.3,14.3,0,0,0,12.81,0L86.87,69a5.11,5.11,0,0,0,0-9.14L70.48,51.63a14.11,14.11,0,0,0-6.38-1.49Z"/></g><g id="Grupo_3665" data-name="Grupo 3665"><path id="Trazado_2071" data-name="Trazado 2071" class="cls-4" d="M84.57,97.2a3.28,3.28,0,0,1-1.47-.35l-6.78-3.48-3.67,1.84a19,19,0,0,1-17,0L39.23,86.88a9.75,9.75,0,0,1,.07-17.43l16.42-8.12a19,19,0,0,1,16.83,0l16.39,8.2a9.79,9.79,0,0,1,0,17.5l-2.77,1.39L87.63,93a3.24,3.24,0,0,1-2.08,4.06,3.35,3.35,0,0,1-1,.15ZM64.1,64.05a14.21,14.21,0,0,0-6.31,1.46L41.38,73.63a5.07,5.07,0,0,0,0,9.07L57.75,91a14.3,14.3,0,0,0,12.81,0l4.06-2a3.79,3.79,0,0,1,3.44,0l4,2.07L81.43,89a3.53,3.53,0,0,1,1.8-4.27l3.63-1.81A5.12,5.12,0,0,0,89.14,76a5.23,5.23,0,0,0-2.28-2.28l-16.4-8.19A14,14,0,0,0,64.1,64.05Z"/></g><g id="Grupo_3666" data-name="Grupo 3666"><path id="Trazado_2072" data-name="Trazado 2072" class="cls-5" d="M64.12,69.38a19,19,0,0,1-8.47-2L39.53,59.33a9.89,9.89,0,0,1,0-17.71l16.19-8.1a18.89,18.89,0,0,1,16.81,0l16.19,8.1a9.9,9.9,0,0,1,0,17.71L72.59,67.39A19,19,0,0,1,64.12,69.38Zm0-33.16a14.23,14.23,0,0,0-6.31,1.48L41.62,45.8a5.22,5.22,0,0,0-2.34,7,5.3,5.3,0,0,0,2.34,2.34l16.12,8.06a14.32,14.32,0,0,0,12.76,0l16.13-8.06a5.23,5.23,0,0,0,2.34-7,5.3,5.3,0,0,0-2.34-2.34L70.44,37.7A14.27,14.27,0,0,0,64.12,36.22Z"/></g></g></g></g></svg>